<svg xmlns="http://www.w3.org/2000/svg" viewBox="0 0 1200 800" width="1200" height="800"><defs><linearGradient id="sk" x1="0" y1="0" x2="0" y2="1"><stop offset="0" stop-color="#3E3A68"/><stop offset="1" stop-color="#EE9A76"/></linearGradient></defs><rect width="1200" height="800" fill="url(#sk)"/><circle cx="680.3699673963629" cy="218.93558134759425" r="120" fill="#FFC07A" opacity="0.35"/><circle cx="680.3699673963629" cy="218.93558134759425" r="61" fill="#FFC07A"/><path d="M0 800 L0 418 Q100 409 200 415 Q300 409 400 419 Q500 413 600 439 Q700 403 800 409 Q900 401 1000 407 Q1100 401 1200 415 L1200 800 Z" fill="#A57F73" opacity="1.0"/><path d="M0 800 L0 470 Q120 461 240 482 Q360 473 480 502 Q600 493 720 525 Q840 465 960 474 Q1080 465 1200 476 L1200 800 Z" fill="#978E64" opacity="1.0"/><path d="M0 800 L0 571 Q150 563 300 579 Q450 571 600 591 Q750 583 900 624 Q1050 598 1200 606 L1200 800 Z" fill="#767461" opacity="1.0"/><rect x="804" y="464" width="120" height="67" fill="#A48A87"/><path d="M793 464 L864 424 L935 464 Z" fill="#8B4B4F"/><rect x="884" y="400" width="29" height="40" fill="#9F837E"/><ellipse cx="240.0" cy="614.7" rx="16.1" ry="73.3" fill="#5C5F4F"/><ellipse cx="301.3333333333333" cy="604.0" rx="15.5" ry="70.7" fill="#5C5F4F"/><ellipse cx="362.66666666666663" cy="593.3" rx="15.0" ry="68.0" fill="#5C5F4F"/><ellipse cx="424.0" cy="582.7" rx="14.4" ry="65.3" fill="#5C5F4F"/><ellipse cx="485.3333333333333" cy="572.0" rx="13.8" ry="62.7" fill="#5C5F4F"/><ellipse cx="546.6666666666666" cy="561.3" rx="13.2" ry="60.0" fill="#5C5F4F"/><ellipse cx="608.0" cy="550.7" rx="12.6" ry="57.3" fill="#5C5F4F"/><ellipse cx="669.3333333333333" cy="540.0" rx="12.0" ry="54.7" fill="#5C5F4F"/><ellipse cx="730.6666666666666" cy="529.3" rx="11.4" ry="52.0" fill="#5C5F4F"/><path d="M0 800 L0 729 Q150 725 300 728 Q450 725 600 746 Q750 742 900 751 Q1050 743 1200 747 L1200 800 Z" fill="#656B48" opacity="1.0"/></svg>
