<svg xmlns="http://www.w3.org/2000/svg" viewBox="0 0 1200 800" width="1200" height="800"><defs><linearGradient id="sk" x1="0" y1="0" x2="0" y2="1"><stop offset="0" stop-color="#7FB8DC"/><stop offset="1" stop-color="#E8F3F6"/></linearGradient></defs><rect width="1200" height="800" fill="url(#sk)"/><circle cx="616.4269866740215" cy="146.24265444467574" r="120" fill="#FFF6D8" opacity="0.35"/><circle cx="616.4269866740215" cy="146.24265444467574" r="61" fill="#FFF6D8"/><g opacity="0.85" fill="#FFFFFF"><ellipse cx="1047" cy="114" rx="80" ry="21"/><ellipse cx="1087" cy="101" rx="48" ry="21"/></g><g opacity="0.85" fill="#FFFFFF"><ellipse cx="737" cy="96" rx="80" ry="21"/><ellipse cx="777" cy="83" rx="48" ry="21"/></g><g opacity="0.85" fill="#FFFFFF"><ellipse cx="471" cy="189" rx="80" ry="21"/><ellipse cx="511" cy="176" rx="48" ry="21"/></g><rect x="0" y="592" width="1200" height="208" fill="#4F8DA6"/><rect x="1114" y="659" width="30" height="2" fill="#FFFFFF" opacity="0.25"/><rect x="82" y="694" width="36" height="2" fill="#FFFFFF" opacity="0.25"/><rect x="34" y="620" width="48" height="2" fill="#FFFFFF" opacity="0.25"/><rect x="780" y="728" width="57" height="2" fill="#FFFFFF" opacity="0.25"/><rect x="338" y="618" width="55" height="2" fill="#FFFFFF" opacity="0.25"/><rect x="728" y="716" width="22" height="2" fill="#FFFFFF" opacity="0.25"/><rect x="122" y="751" width="26" height="2" fill="#FFFFFF" opacity="0.25"/><rect x="471" y="736" width="49" height="2" fill="#FFFFFF" opacity="0.25"/><rect x="872" y="593" width="47" height="2" fill="#FFFFFF" opacity="0.25"/><rect x="329" y="734" width="33" height="2" fill="#FFFFFF" opacity="0.25"/><rect x="1070" y="663" width="31" height="2" fill="#FFFFFF" opacity="0.25"/><rect x="669" y="618" width="60" height="2" fill="#FFFFFF" opacity="0.25"/><rect x="52" y="713" width="57" height="2" fill="#FFFFFF" opacity="0.25"/><rect x="382" y="648" width="57" height="2" fill="#FFFFFF" opacity="0.25"/><path d="M0 608 Q360 304 1080 400 L1200 416 L1200 608 Z" fill="#D9B48A"/><rect x="53" y="532" width="69" height="59" fill="#D36E4F"/><path d="M49 532 L88 511 L127 532 Z" fill="#B85A3A"/><rect x="65" y="548" width="12" height="16" fill="#3E4E5E" opacity="0.7"/><rect x="96" y="548" width="12" height="16" fill="#3E4E5E" opacity="0.7"/><rect x="110" y="495" width="69" height="59" fill="#6FA3C7"/><path d="M106 495 L145 473 L184 495 Z" fill="#B85A3A"/><rect x="122" y="511" width="12" height="16" fill="#3E4E5E" opacity="0.7"/><rect x="153" y="511" width="12" height="16" fill="#3E4E5E" opacity="0.7"/><rect x="171" y="461" width="69" height="59" fill="#F1E3C8"/><path d="M167 461 L205 440 L244 461 Z" fill="#B85A3A"/><rect x="183" y="477" width="12" height="16" fill="#3E4E5E" opacity="0.7"/><rect x="213" y="477" width="12" height="16" fill="#3E4E5E" opacity="0.7"/><rect x="235" y="432" width="69" height="59" fill="#E59A8C"/><path d="M231 432 L270 411 L308 432 Z" fill="#B85A3A"/><rect x="247" y="448" width="12" height="16" fill="#3E4E5E" opacity="0.7"/><rect x="278" y="448" width="12" height="16" fill="#3E4E5E" opacity="0.7"/><rect x="303" y="407" width="69" height="59" fill="#9DC3A6"/><path d="M299 407 L338 386 L376 407 Z" fill="#B85A3A"/><rect x="315" y="423" width="12" height="16" fill="#3E4E5E" opacity="0.7"/><rect x="346" y="423" width="12" height="16" fill="#3E4E5E" opacity="0.7"/><rect x="375" y="386" width="69" height="59" fill="#E7B04A"/><path d="M371 386 L409 365 L448 386 Z" fill="#B85A3A"/><rect x="387" y="402" width="12" height="16" fill="#3E4E5E" opacity="0.7"/><rect x="417" y="402" width="12" height="16" fill="#3E4E5E" opacity="0.7"/><rect x="450" y="369" width="69" height="59" fill="#D36E4F"/><path d="M446 369 L485 348 L523 369 Z" fill="#B85A3A"/><rect x="462" y="385" width="12" height="16" fill="#3E4E5E" opacity="0.7"/><rect x="493" y="385" width="12" height="16" fill="#3E4E5E" opacity="0.7"/><rect x="529" y="357" width="69" height="59" fill="#6FA3C7"/><path d="M525 357 L564 335 L602 357 Z" fill="#B85A3A"/><rect x="541" y="373" width="12" height="16" fill="#3E4E5E" opacity="0.7"/><rect x="572" y="373" width="12" height="16" fill="#3E4E5E" opacity="0.7"/><rect x="612" y="348" width="69" height="59" fill="#F1E3C8"/><path d="M608 348 L646 326 L685 348 Z" fill="#B85A3A"/><rect x="624" y="364" width="12" height="16" fill="#3E4E5E" opacity="0.7"/><rect x="654" y="364" width="12" height="16" fill="#3E4E5E" opacity="0.7"/><rect x="698" y="343" width="69" height="59" fill="#E59A8C"/><path d="M694 343 L733 322 L771 343 Z" fill="#B85A3A"/><rect x="710" y="359" width="12" height="16" fill="#3E4E5E" opacity="0.7"/><rect x="741" y="359" width="12" height="16" fill="#3E4E5E" opacity="0.7"/><rect x="788" y="343" width="69" height="59" fill="#9DC3A6"/><path d="M784 343 L823 321 L861 343 Z" fill="#B85A3A"/><rect x="800" y="359" width="12" height="16" fill="#3E4E5E" opacity="0.7"/><rect x="831" y="359" width="12" height="16" fill="#3E4E5E" opacity="0.7"/><rect x="882" y="346" width="69" height="59" fill="#E7B04A"/><path d="M878 346 L916 325 L955 346 Z" fill="#B85A3A"/><rect x="894" y="362" width="12" height="16" fill="#3E4E5E" opacity="0.7"/><rect x="924" y="362" width="12" height="16" fill="#3E4E5E" opacity="0.7"/><rect x="979" y="354" width="69" height="59" fill="#D36E4F"/><path d="M975 354 L1014 332 L1052 354 Z" fill="#B85A3A"/><rect x="991" y="370" width="12" height="16" fill="#3E4E5E" opacity="0.7"/><rect x="1022" y="370" width="12" height="16" fill="#3E4E5E" opacity="0.7"/><rect x="202" y="510" width="69" height="59" fill="#E7B04A"/><path d="M198 510 L237 489 L276 510 Z" fill="#B85A3A"/><rect x="214" y="526" width="12" height="16" fill="#3E4E5E" opacity="0.7"/><rect x="245" y="526" width="12" height="16" fill="#3E4E5E" opacity="0.7"/><rect x="269" y="483" width="69" height="59" fill="#D36E4F"/><path d="M265 483 L303 462 L342 483 Z" fill="#B85A3A"/><rect x="281" y="499" width="12" height="16" fill="#3E4E5E" opacity="0.7"/><rect x="311" y="499" width="12" height="16" fill="#3E4E5E" opacity="0.7"/><rect x="338" y="460" width="69" height="59" fill="#6FA3C7"/><path d="M334 460 L373 439 L412 460 Z" fill="#B85A3A"/><rect x="350" y="476" width="12" height="16" fill="#3E4E5E" opacity="0.7"/><rect x="381" y="476" width="12" height="16" fill="#3E4E5E" opacity="0.7"/><rect x="412" y="441" width="69" height="59" fill="#F1E3C8"/><path d="M408 441 L447 420 L485 441 Z" fill="#B85A3A"/><rect x="424" y="457" width="12" height="16" fill="#3E4E5E" opacity="0.7"/><rect x="455" y="457" width="12" height="16" fill="#3E4E5E" opacity="0.7"/><rect x="489" y="426" width="69" height="59" fill="#E59A8C"/><path d="M485 426 L524 405 L562 426 Z" fill="#B85A3A"/><rect x="501" y="442" width="12" height="16" fill="#3E4E5E" opacity="0.7"/><rect x="532" y="442" width="12" height="16" fill="#3E4E5E" opacity="0.7"/><rect x="570" y="416" width="69" height="59" fill="#9DC3A6"/><path d="M566 416 L605 394 L643 416 Z" fill="#B85A3A"/><rect x="582" y="432" width="12" height="16" fill="#3E4E5E" opacity="0.7"/><rect x="613" y="432" width="12" height="16" fill="#3E4E5E" opacity="0.7"/><rect x="654" y="409" width="69" height="59" fill="#E7B04A"/><path d="M650 409 L689 388 L728 409 Z" fill="#B85A3A"/><rect x="666" y="425" width="12" height="16" fill="#3E4E5E" opacity="0.7"/><rect x="697" y="425" width="12" height="16" fill="#3E4E5E" opacity="0.7"/><rect x="742" y="406" width="69" height="59" fill="#D36E4F"/><path d="M738 406 L777 385 L816 406 Z" fill="#B85A3A"/><rect x="754" y="422" width="12" height="16" fill="#3E4E5E" opacity="0.7"/><rect x="785" y="422" width="12" height="16" fill="#3E4E5E" opacity="0.7"/><rect x="834" y="408" width="69" height="59" fill="#6FA3C7"/><path d="M830 408 L869 386 L908 408 Z" fill="#B85A3A"/><rect x="846" y="424" width="12" height="16" fill="#3E4E5E" opacity="0.7"/><rect x="877" y="424" width="12" height="16" fill="#3E4E5E" opacity="0.7"/><rect x="930" y="413" width="69" height="59" fill="#F1E3C8"/><path d="M926 413 L965 392 L1003 413 Z" fill="#B85A3A"/><rect x="942" y="429" width="12" height="16" fill="#3E4E5E" opacity="0.7"/><rect x="973" y="429" width="12" height="16" fill="#3E4E5E" opacity="0.7"/><rect x="1029" y="423" width="69" height="59" fill="#E59A8C"/><path d="M1025 423 L1064 402 L1102 423 Z" fill="#B85A3A"/><rect x="1041" y="439" width="12" height="16" fill="#3E4E5E" opacity="0.7"/><rect x="1072" y="439" width="12" height="16" fill="#3E4E5E" opacity="0.7"/><rect x="375" y="514" width="69" height="59" fill="#E7B04A"/><path d="M371 514 L409 493 L448 514 Z" fill="#B85A3A"/><rect x="387" y="530" width="12" height="16" fill="#3E4E5E" opacity="0.7"/><rect x="417" y="530" width="12" height="16" fill="#3E4E5E" opacity="0.7"/><rect x="450" y="497" width="69" height="59" fill="#D36E4F"/><path d="M446 497 L485 476 L523 497 Z" fill="#B85A3A"/><rect x="462" y="513" width="12" height="16" fill="#3E4E5E" opacity="0.7"/><rect x="493" y="513" width="12" height="16" fill="#3E4E5E" opacity="0.7"/><rect x="529" y="485" width="69" height="59" fill="#6FA3C7"/><path d="M525 485 L564 463 L602 485 Z" fill="#B85A3A"/><rect x="541" y="501" width="12" height="16" fill="#3E4E5E" opacity="0.7"/><rect x="572" y="501" width="12" height="16" fill="#3E4E5E" opacity="0.7"/><rect x="612" y="476" width="69" height="59" fill="#F1E3C8"/><path d="M608 476 L646 454 L685 476 Z" fill="#B85A3A"/><rect x="624" y="492" width="12" height="16" fill="#3E4E5E" opacity="0.7"/><rect x="654" y="492" width="12" height="16" fill="#3E4E5E" opacity="0.7"/><rect x="698" y="471" width="69" height="59" fill="#E59A8C"/><path d="M694 471 L733 450 L771 471 Z" fill="#B85A3A"/><rect x="710" y="487" width="12" height="16" fill="#3E4E5E" opacity="0.7"/><rect x="741" y="487" width="12" height="16" fill="#3E4E5E" opacity="0.7"/><rect x="788" y="471" width="69" height="59" fill="#9DC3A6"/><path d="M784 471 L823 449 L861 471 Z" fill="#B85A3A"/><rect x="800" y="487" width="12" height="16" fill="#3E4E5E" opacity="0.7"/><rect x="831" y="487" width="12" height="16" fill="#3E4E5E" opacity="0.7"/><rect x="882" y="474" width="69" height="59" fill="#E7B04A"/><path d="M878 474 L916 453 L955 474 Z" fill="#B85A3A"/><rect x="894" y="490" width="12" height="16" fill="#3E4E5E" opacity="0.7"/><rect x="924" y="490" width="12" height="16" fill="#3E4E5E" opacity="0.7"/><rect x="979" y="482" width="69" height="59" fill="#D36E4F"/><path d="M975 482 L1014 460 L1052 482 Z" fill="#B85A3A"/><rect x="991" y="498" width="12" height="16" fill="#3E4E5E" opacity="0.7"/><rect x="1022" y="498" width="12" height="16" fill="#3E4E5E" opacity="0.7"/><rect x="0" y="720" width="1200" height="81" fill="#9B6B4A"/><rect x="744" y="645" width="160" height="75" rx="13" fill="#F2C94C"/><rect x="760" y="659" width="128" height="27" fill="#F7F1E0"/></svg>
