<svg xmlns="http://www.w3.org/2000/svg" viewBox="0 0 1200 800" width="1200" height="800"><defs><linearGradient id="sk" x1="0" y1="0" x2="0" y2="1"><stop offset="0" stop-color="#7FB8DC"/><stop offset="1" stop-color="#E8F3F6"/></linearGradient></defs><rect width="1200" height="800" fill="url(#sk)"/><circle cx="570.1237162313414" cy="238.30775430766982" r="120" fill="#FFF6D8" opacity="0.35"/><circle cx="570.1237162313414" cy="238.30775430766982" r="61" fill="#FFF6D8"/><g opacity="0.85" fill="#FFFFFF"><ellipse cx="797" cy="74" rx="80" ry="21"/><ellipse cx="837" cy="61" rx="48" ry="21"/></g><g opacity="0.85" fill="#FFFFFF"><ellipse cx="656" cy="91" rx="80" ry="21"/><ellipse cx="696" cy="78" rx="48" ry="21"/></g><g opacity="0.85" fill="#FFFFFF"><ellipse cx="164" cy="209" rx="80" ry="21"/><ellipse cx="204" cy="196" rx="48" ry="21"/></g><path d="M0 800 L0 269 L133 369 L267 343 L400 451 L533 461 L667 418 L800 465 L933 315 L1067 446 L1200 380 L1200 800 Z" fill="#97A8B7" opacity="1.0"/><path d="M0 800 L0 469 L133 441 L267 412 L400 378 L533 421 L667 370 L800 359 L933 448 L1067 368 L1200 460 L1200 800 Z" fill="#EEF3F6" opacity="0.5"/><path d="M387 384 Q600 440 893 576 L520 592 Z" fill="#DCEBF2"/><path d="M0 800 L0 556 L200 543 L400 533 L600 538 L800 561 L1000 532 L1200 552 L1200 800 Z" fill="#4E5E6E" opacity="1.0"/><rect x="240" y="440" width="35" height="240" fill="#F2F7FA" opacity="0.9"/><rect x="0" y="672" width="1200" height="128" fill="#4E7E95"/><rect x="793" y="679" width="22" height="2" fill="#FFFFFF" opacity="0.25"/><rect x="308" y="786" width="65" height="2" fill="#FFFFFF" opacity="0.25"/><rect x="987" y="734" width="30" height="2" fill="#FFFFFF" opacity="0.25"/><rect x="448" y="792" width="32" height="2" fill="#FFFFFF" opacity="0.25"/><rect x="1054" y="750" width="47" height="2" fill="#FFFFFF" opacity="0.25"/><rect x="309" y="707" width="32" height="2" fill="#FFFFFF" opacity="0.25"/><rect x="977" y="677" width="39" height="2" fill="#FFFFFF" opacity="0.25"/><rect x="784" y="707" width="29" height="2" fill="#FFFFFF" opacity="0.25"/><rect x="1200" y="711" width="69" height="2" fill="#FFFFFF" opacity="0.25"/><rect x="679" y="764" width="39" height="2" fill="#FFFFFF" opacity="0.25"/><rect x="657" y="726" width="61" height="2" fill="#FFFFFF" opacity="0.25"/><rect x="135" y="723" width="53" height="2" fill="#FFFFFF" opacity="0.25"/><rect x="1072" y="682" width="67" height="2" fill="#FFFFFF" opacity="0.25"/><rect x="124" y="712" width="39" height="2" fill="#FFFFFF" opacity="0.25"/><path d="M0 800 L0 765 Q120 763 240 767 Q360 763 480 765 Q600 763 720 776 Q840 767 960 769 Q1080 758 1200 760 L1200 800 Z" fill="#2B3640" opacity="1.0"/></svg>
