<svg xmlns="http://www.w3.org/2000/svg" viewBox="0 0 1200 800" width="1200" height="800"><defs><linearGradient id="sk" x1="0" y1="0" x2="0" y2="1"><stop offset="0" stop-color="#3E3A68"/><stop offset="1" stop-color="#EE9A76"/></linearGradient></defs><rect width="1200" height="800" fill="url(#sk)"/><circle cx="752.2961478838629" cy="165.61886709347075" r="120" fill="#FFC07A" opacity="0.35"/><circle cx="752.2961478838629" cy="165.61886709347075" r="61" fill="#FFC07A"/><path d="M0 800 L0 475 Q120 469 240 487 Q360 481 480 510 Q600 499 720 505 Q840 483 960 489 Q1080 468 1200 474 L1200 800 Z" fill="#AC7E73" opacity="1.0"/><path d="M344 576 L1144 576 L1125 531 L363 531 Z" fill="#8E6861"/><path d="M403 531 L1085 531 L1067 485 L421 485 Z" fill="#8D685F"/><path d="M461 485 L1027 485 L1008 440 L480 440 Z" fill="#8D685E"/><path d="M520 440 L968 440 L949 395 L539 395 Z" fill="#8D685C"/><path d="M579 395 L909 395 L891 349 L597 349 Z" fill="#8D685B"/><path d="M637 349 L851 349 L832 304 L656 304 Z" fill="#8C685A"/><rect x="704" y="251" width="80" height="53" fill="#6B4D4F"/><rect x="723" y="296" width="43" height="280" fill="#856361" opacity="0.6"/><rect x="0" y="576" width="1200" height="224" fill="#6D564F"/><rect x="131" y="560" width="27" height="160" rx="13" fill="#4A564F"/><path d="M131 640 h-27 v-40" stroke="#4A564F" stroke-width="19" fill="none" stroke-linecap="round"/><path d="M157 616 h27 v-32" stroke="#4A564F" stroke-width="19" fill="none" stroke-linecap="round"/><rect x="995" y="587" width="27" height="133" rx="13" fill="#4A564F"/><path d="M995 653 h-27 v-40" stroke="#4A564F" stroke-width="19" fill="none" stroke-linecap="round"/><path d="M1021 633 h27 v-32" stroke="#4A564F" stroke-width="19" fill="none" stroke-linecap="round"/><rect x="1091" y="613" width="27" height="107" rx="13" fill="#4A564F"/><path d="M1091 667 h-27 v-40" stroke="#4A564F" stroke-width="19" fill="none" stroke-linecap="round"/><path d="M1117 651 h27 v-32" stroke="#4A564F" stroke-width="19" fill="none" stroke-linecap="round"/></svg>
