<svg xmlns="http://www.w3.org/2000/svg" viewBox="0 0 1200 800" width="1200" height="800"><defs><linearGradient id="sk" x1="0" y1="0" x2="0" y2="1"><stop offset="0" stop-color="#3E3A68"/><stop offset="1" stop-color="#EE9A76"/></linearGradient></defs><rect width="1200" height="800" fill="url(#sk)"/><circle cx="699.8836413682858" cy="193.41189248780273" r="120" fill="#FFC07A" opacity="0.35"/><circle cx="699.8836413682858" cy="193.41189248780273" r="61" fill="#FFC07A"/><path d="M0 800 L0 396 L200 392 L400 398 L600 306 L800 394 L1000 393 L1200 311 L1200 800 Z" fill="#87757B" opacity="1.0"/><path d="M0 800 L0 96 Q240 144 600 592 L624 800 Z" fill="#4A585C"/><path d="M1200 800 L1200 80 Q984 160 888 592 L864 800 Z" fill="#3C454D"/><rect x="0" y="592" width="1200" height="208" fill="#515174"/><rect x="199" y="629" width="59" height="2" fill="#FFFFFF" opacity="0.25"/><rect x="347" y="759" width="56" height="2" fill="#FFFFFF" opacity="0.25"/><rect x="918" y="743" width="24" height="2" fill="#FFFFFF" opacity="0.25"/><rect x="1007" y="690" width="58" height="2" fill="#FFFFFF" opacity="0.25"/><rect x="558" y="755" width="43" height="2" fill="#FFFFFF" opacity="0.25"/><rect x="95" y="611" width="62" height="2" fill="#FFFFFF" opacity="0.25"/><rect x="496" y="670" width="37" height="2" fill="#FFFFFF" opacity="0.25"/><rect x="411" y="644" width="21" height="2" fill="#FFFFFF" opacity="0.25"/><rect x="53" y="755" width="64" height="2" fill="#FFFFFF" opacity="0.25"/><rect x="865" y="719" width="63" height="2" fill="#FFFFFF" opacity="0.25"/><rect x="768" y="771" width="57" height="2" fill="#FFFFFF" opacity="0.25"/><rect x="472" y="646" width="48" height="2" fill="#FFFFFF" opacity="0.25"/><rect x="748" y="737" width="39" height="2" fill="#FFFFFF" opacity="0.25"/><rect x="250" y="773" width="35" height="2" fill="#FFFFFF" opacity="0.25"/><path d="M984 240 q-13 160 -40 352" stroke="#ADA4B9" stroke-width="13" fill="none" opacity="0.9"/><path d="M691 656.0 L797 656.0 L784 672 L704 672 Z" fill="#AD9FAE"/><path d="M736 656.0 L736 589 L699 648 Z" fill="#B4A8BB"/><path d="M749 656.0 L749 603 L781 648 Z" fill="#B4A8BB" opacity="0.85"/></svg>
