<svg xmlns="http://www.w3.org/2000/svg" viewBox="0 0 1200 675" width="1200" height="675"><defs><linearGradient id="sk" x1="0" y1="0" x2="0" y2="1"><stop offset="0" stop-color="#7FB8DC"/><stop offset="1" stop-color="#E8F3F6"/></linearGradient></defs><rect width="1200" height="675" fill="url(#sk)"/><circle cx="683.3718141613147" cy="137.27511413826505" r="101" fill="#FFF6D8" opacity="0.35"/><circle cx="683.3718141613147" cy="137.27511413826505" r="52" fill="#FFF6D8"/><g opacity="0.85" fill="#FFFFFF"><ellipse cx="1047" cy="191" rx="68" ry="18"/><ellipse cx="1080" cy="180" rx="40" ry="18"/></g><g opacity="0.85" fill="#FFFFFF"><ellipse cx="568" cy="153" rx="68" ry="18"/><ellipse cx="602" cy="141" rx="40" ry="18"/></g><g opacity="0.85" fill="#FFFFFF"><ellipse cx="326" cy="87" rx="68" ry="18"/><ellipse cx="360" cy="76" rx="40" ry="18"/></g><path d="M0 675 L0 384 Q75 377 150 386 Q225 379 300 393 Q375 387 450 406 Q525 399 600 414 Q675 376 750 383 Q825 367 900 374 Q975 367 1050 417 Q1125 410 1200 418 L1200 675 Z" fill="#8DA8BB" opacity="1.0"/><path d="M289 459 L592 135 L728 135 L1031 459 Z" fill="#6D88A0"/><path d="M592 135 L728 135 L793 209 L728 196 L682 223 L626 196 L527 209 Z" fill="#F4F6F8"/><rect x="0" y="472" width="1200" height="203" fill="#5C93AE"/><rect x="566" y="539" width="52" height="2" fill="#FFFFFF" opacity="0.25"/><rect x="485" y="515" width="42" height="2" fill="#FFFFFF" opacity="0.25"/><rect x="365" y="495" width="61" height="2" fill="#FFFFFF" opacity="0.25"/><rect x="816" y="607" width="64" height="2" fill="#FFFFFF" opacity="0.25"/><rect x="474" y="549" width="41" height="2" fill="#FFFFFF" opacity="0.25"/><rect x="485" y="608" width="20" height="2" fill="#FFFFFF" opacity="0.25"/><rect x="557" y="581" width="37" height="2" fill="#FFFFFF" opacity="0.25"/><rect x="26" y="615" width="20" height="2" fill="#FFFFFF" opacity="0.25"/><rect x="677" y="504" width="22" height="2" fill="#FFFFFF" opacity="0.25"/><rect x="217" y="486" width="28" height="2" fill="#FFFFFF" opacity="0.25"/><rect x="822" y="620" width="38" height="2" fill="#FFFFFF" opacity="0.25"/><rect x="783" y="569" width="45" height="2" fill="#FFFFFF" opacity="0.25"/><rect x="1051" y="536" width="63" height="2" fill="#FFFFFF" opacity="0.25"/><rect x="829" y="611" width="20" height="2" fill="#FFFFFF" opacity="0.25"/><path d="M0 675 L0 520 Q100 502 200 507 Q300 502 400 526 Q500 521 600 531 Q700 508 800 513 Q900 502 1000 507 Q1100 501 1200 507 L1200 675 Z" fill="#4C7A5A" opacity="1.0"/><path d="M125 526 L283 526 L259 513 L149 513 Z" fill="#8E3B2E"/><rect x="161" y="526" width="87" height="16" fill="#5A2A22"/><path d="M139 497 L269 497 L250 484 L158 484 Z" fill="#8E3B2E"/><rect x="168" y="497" width="72" height="16" fill="#5A2A22"/><path d="M152 468 L256 468 L240 454 L168 454 Z" fill="#8E3B2E"/><rect x="176" y="468" width="57" height="16" fill="#5A2A22"/><path d="M166 439 L242 439 L231 425 L177 425 Z" fill="#8E3B2E"/><rect x="183" y="439" width="42" height="16" fill="#5A2A22"/><circle cx="847" cy="648" r="16" fill="#F2B8C6" opacity="0.9"/><circle cx="951" cy="571" r="9" fill="#F2B8C6" opacity="0.9"/><circle cx="951" cy="643" r="17" fill="#F2B8C6" opacity="0.9"/><circle cx="536" cy="662" r="8" fill="#F2B8C6" opacity="0.9"/><circle cx="1149" cy="661" r="11" fill="#F2B8C6" opacity="0.9"/><circle cx="81" cy="620" r="15" fill="#F2B8C6" opacity="0.9"/><circle cx="420" cy="560" r="10" fill="#F2B8C6" opacity="0.9"/><circle cx="989" cy="565" r="17" fill="#F2B8C6" opacity="0.9"/><circle cx="300" cy="578" r="8" fill="#F2B8C6" opacity="0.9"/><circle cx="1177" cy="663" r="10" fill="#F2B8C6" opacity="0.9"/><circle cx="115" cy="633" r="17" fill="#F2B8C6" opacity="0.9"/><circle cx="15" cy="630" r="16" fill="#F2B8C6" opacity="0.9"/><circle cx="551" cy="623" r="16" fill="#F2B8C6" opacity="0.9"/><circle cx="286" cy="587" r="14" fill="#F2B8C6" opacity="0.9"/><circle cx="663" cy="619" r="11" fill="#F2B8C6" opacity="0.9"/><circle cx="1124" cy="589" r="14" fill="#F2B8C6" opacity="0.9"/><circle cx="1073" cy="602" r="7" fill="#F2B8C6" opacity="0.9"/><circle cx="264" cy="562" r="8" fill="#F2B8C6" opacity="0.9"/><circle cx="145" cy="595" r="11" fill="#F2B8C6" opacity="0.9"/><circle cx="537" cy="634" r="14" fill="#F2B8C6" opacity="0.9"/><circle cx="825" cy="598" r="14" fill="#F2B8C6" opacity="0.9"/><circle cx="660" cy="569" r="13" fill="#F2B8C6" opacity="0.9"/><circle cx="382" cy="636" r="15" fill="#F2B8C6" opacity="0.9"/><circle cx="289" cy="606" r="12" fill="#F2B8C6" opacity="0.9"/><circle cx="356" cy="558" r="7" fill="#F2B8C6" opacity="0.9"/><circle cx="1191" cy="643" r="12" fill="#F2B8C6" opacity="0.9"/><path d="M0 675 L0 626 Q120 623 240 626 Q360 623 480 639 Q600 635 720 637 Q840 627 960 630 Q1080 624 1200 626 L1200 675 Z" fill="#2F5A3E" opacity="1.0"/></svg>
