<svg xmlns="http://www.w3.org/2000/svg" viewBox="0 0 1200 675" width="1200" height="675"><defs><linearGradient id="sk" x1="0" y1="0" x2="0" y2="1"><stop offset="0" stop-color="#F2A65A"/><stop offset="1" stop-color="#FCE6BE"/></linearGradient></defs><rect width="1200" height="675" fill="url(#sk)"/><circle cx="774.0198840020208" cy="137.45173470652182" r="101" fill="#FFE29A" opacity="0.35"/><circle cx="774.0198840020208" cy="137.45173470652182" r="52" fill="#FFE29A"/><rect x="0" y="405" width="1200" height="270" fill="#808985"/><rect x="136" y="435" width="58" height="2" fill="#FFFFFF" opacity="0.25"/><rect x="1030" y="673" width="54" height="2" fill="#FFFFFF" opacity="0.25"/><rect x="768" y="591" width="44" height="2" fill="#FFFFFF" opacity="0.25"/><rect x="656" y="444" width="22" height="2" fill="#FFFFFF" opacity="0.25"/><rect x="1042" y="621" width="68" height="2" fill="#FFFFFF" opacity="0.25"/><rect x="888" y="564" width="28" height="2" fill="#FFFFFF" opacity="0.25"/><rect x="1043" y="548" width="63" height="2" fill="#FFFFFF" opacity="0.25"/><rect x="937" y="617" width="52" height="2" fill="#FFFFFF" opacity="0.25"/><rect x="958" y="521" width="56" height="2" fill="#FFFFFF" opacity="0.25"/><rect x="630" y="570" width="69" height="2" fill="#FFFFFF" opacity="0.25"/><rect x="1067" y="598" width="50" height="2" fill="#FFFFFF" opacity="0.25"/><rect x="280" y="632" width="41" height="2" fill="#FFFFFF" opacity="0.25"/><rect x="444" y="638" width="44" height="2" fill="#FFFFFF" opacity="0.25"/><rect x="838" y="455" width="58" height="2" fill="#FFFFFF" opacity="0.25"/><path d="M24 675 L60 351 Q360 270 660 405 L744 675 Z" fill="#E7C9A7"/><rect x="96" y="322" width="63" height="56" fill="#F6E3CF"/><rect x="121" y="344" width="14" height="20" fill="#5C7B90"/><rect x="166" y="329" width="63" height="56" fill="#F6E3CF"/><rect x="190" y="351" width="14" height="20" fill="#5C7B90"/><rect x="236" y="335" width="63" height="56" fill="#F6E3CF"/><rect x="260" y="358" width="14" height="20" fill="#5C7B90"/><rect x="305" y="342" width="63" height="56" fill="#F6E3CF"/><rect x="330" y="365" width="14" height="20" fill="#5C7B90"/><rect x="375" y="349" width="63" height="56" fill="#F6E3CF"/><rect x="400" y="371" width="14" height="20" fill="#5C7B90"/><rect x="445" y="356" width="63" height="56" fill="#F6E3CF"/><rect x="470" y="378" width="14" height="20" fill="#5C7B90"/><rect x="130" y="401" width="63" height="56" fill="#F6E3CF"/><rect x="154" y="423" width="14" height="20" fill="#5C7B90"/><rect x="200" y="407" width="63" height="56" fill="#F6E3CF"/><rect x="224" y="430" width="14" height="20" fill="#5C7B90"/><rect x="269" y="414" width="63" height="56" fill="#F6E3CF"/><rect x="294" y="437" width="14" height="20" fill="#5C7B90"/><rect x="339" y="421" width="63" height="56" fill="#F6E3CF"/><rect x="364" y="443" width="14" height="20" fill="#5C7B90"/><rect x="409" y="428" width="63" height="56" fill="#F6E3CF"/><rect x="434" y="450" width="14" height="20" fill="#5C7B90"/><rect x="478" y="434" width="63" height="56" fill="#F6E3CF"/><rect x="503" y="457" width="14" height="20" fill="#5C7B90"/><rect x="182" y="324" width="68" height="45" fill="#F6E3CF"/><path d="M182 324 A34 34 0 0 1 250 324 Z" fill="#5C7B90"/><rect x="214" y="272" width="4" height="18" fill="#F6E3CF"/><rect x="446" y="324" width="68" height="45" fill="#F6E3CF"/><path d="M446 324 A34 34 0 0 1 514 324 Z" fill="#5C7B90"/><rect x="478" y="272" width="4" height="18" fill="#F6E3CF"/><path d="M791 499.5 L890 499.5 L877 514 L803 514 Z" fill="#EFDAC3"/><path d="M833 499.5 L833 438 L798 492 Z" fill="#F9E7D5"/><path d="M845 499.5 L845 450 L875 492 Z" fill="#F9E7D5" opacity="0.85"/></svg>
