<svg xmlns="http://www.w3.org/2000/svg" viewBox="0 0 1200 675" width="1200" height="675"><defs><linearGradient id="sk" x1="0" y1="0" x2="0" y2="1"><stop offset="0" stop-color="#3E3A68"/><stop offset="1" stop-color="#EE9A76"/></linearGradient></defs><rect width="1200" height="675" fill="url(#sk)"/><circle cx="585.1496726590818" cy="134.81659838551786" r="101" fill="#FFC07A" opacity="0.35"/><circle cx="585.1496726590818" cy="134.81659838551786" r="52" fill="#FFC07A"/><rect x="0" y="405" width="1200" height="270" fill="#4C507C"/><rect x="480" y="448" width="40" height="2" fill="#FFFFFF" opacity="0.25"/><rect x="141" y="547" width="48" height="2" fill="#FFFFFF" opacity="0.25"/><rect x="419" y="624" width="22" height="2" fill="#FFFFFF" opacity="0.25"/><rect x="1170" y="522" width="28" height="2" fill="#FFFFFF" opacity="0.25"/><rect x="463" y="519" width="20" height="2" fill="#FFFFFF" opacity="0.25"/><rect x="844" y="578" width="50" height="2" fill="#FFFFFF" opacity="0.25"/><rect x="764" y="650" width="44" height="2" fill="#FFFFFF" opacity="0.25"/><rect x="660" y="659" width="64" height="2" fill="#FFFFFF" opacity="0.25"/><rect x="207" y="435" width="65" height="2" fill="#FFFFFF" opacity="0.25"/><rect x="747" y="411" width="31" height="2" fill="#FFFFFF" opacity="0.25"/><rect x="400" y="515" width="33" height="2" fill="#FFFFFF" opacity="0.25"/><rect x="370" y="555" width="66" height="2" fill="#FFFFFF" opacity="0.25"/><rect x="842" y="658" width="20" height="2" fill="#FFFFFF" opacity="0.25"/><rect x="343" y="646" width="50" height="2" fill="#FFFFFF" opacity="0.25"/><path d="M24 675 L60 351 Q360 270 660 405 L744 675 Z" fill="#A79299"/><rect x="96" y="322" width="63" height="56" fill="#B2A5B7"/><rect x="121" y="344" width="14" height="20" fill="#415989"/><rect x="166" y="329" width="63" height="56" fill="#B2A5B7"/><rect x="190" y="351" width="14" height="20" fill="#415989"/><rect x="236" y="335" width="63" height="56" fill="#B2A5B7"/><rect x="260" y="358" width="14" height="20" fill="#415989"/><rect x="305" y="342" width="63" height="56" fill="#B2A5B7"/><rect x="330" y="365" width="14" height="20" fill="#415989"/><rect x="375" y="349" width="63" height="56" fill="#B2A5B7"/><rect x="400" y="371" width="14" height="20" fill="#415989"/><rect x="445" y="356" width="63" height="56" fill="#B2A5B7"/><rect x="470" y="378" width="14" height="20" fill="#415989"/><rect x="130" y="401" width="63" height="56" fill="#B2A5B7"/><rect x="154" y="423" width="14" height="20" fill="#415989"/><rect x="200" y="407" width="63" height="56" fill="#B2A5B7"/><rect x="224" y="430" width="14" height="20" fill="#415989"/><rect x="269" y="414" width="63" height="56" fill="#B2A5B7"/><rect x="294" y="437" width="14" height="20" fill="#415989"/><rect x="339" y="421" width="63" height="56" fill="#B2A5B7"/><rect x="364" y="443" width="14" height="20" fill="#415989"/><rect x="409" y="428" width="63" height="56" fill="#B2A5B7"/><rect x="434" y="450" width="14" height="20" fill="#415989"/><rect x="478" y="434" width="63" height="56" fill="#B2A5B7"/><rect x="503" y="457" width="14" height="20" fill="#415989"/><rect x="182" y="324" width="68" height="45" fill="#B2A5B7"/><path d="M182 324 A34 34 0 0 1 250 324 Z" fill="#415989"/><rect x="214" y="272" width="4" height="18" fill="#B2A5B7"/><rect x="446" y="324" width="68" height="45" fill="#B2A5B7"/><path d="M446 324 A34 34 0 0 1 514 324 Z" fill="#415989"/><rect x="478" y="272" width="4" height="18" fill="#B2A5B7"/><path d="M791 499.5 L890 499.5 L877 514 L803 514 Z" fill="#AD9FAE"/><path d="M833 499.5 L833 438 L798 492 Z" fill="#B4A8BB"/><path d="M845 499.5 L845 450 L875 492 Z" fill="#B4A8BB" opacity="0.85"/></svg>
