<svg xmlns="http://www.w3.org/2000/svg" viewBox="0 0 1600 480" width="1600" height="480"><defs><linearGradient id="sk" x1="0" y1="0" x2="0" y2="1"><stop offset="0" stop-color="#7FB8DC"/><stop offset="1" stop-color="#E8F3F6"/></linearGradient></defs><rect width="1600" height="480" fill="url(#sk)"/><circle cx="1023.3406002559481" cy="126.13057483493188" r="72" fill="#FFF6D8" opacity="0.35"/><circle cx="1023.3406002559481" cy="126.13057483493188" r="37" fill="#FFF6D8"/><g opacity="0.85" fill="#FFFFFF"><ellipse cx="973" cy="89" rx="48" ry="13"/><ellipse cx="997" cy="81" rx="29" ry="13"/></g><g opacity="0.85" fill="#FFFFFF"><ellipse cx="436" cy="122" rx="48" ry="13"/><ellipse cx="460" cy="114" rx="29" ry="13"/></g><g opacity="0.85" fill="#FFFFFF"><ellipse cx="1194" cy="93" rx="48" ry="13"/><ellipse cx="1218" cy="85" rx="29" ry="13"/></g><rect x="0" y="288" width="1600" height="192" fill="#2F78A8"/><rect x="808" y="333" width="20" height="2" fill="#FFFFFF" opacity="0.25"/><rect x="594" y="400" width="23" height="2" fill="#FFFFFF" opacity="0.25"/><rect x="1270" y="333" width="32" height="2" fill="#FFFFFF" opacity="0.25"/><rect x="68" y="480" width="57" height="2" fill="#FFFFFF" opacity="0.25"/><rect x="1400" y="406" width="22" height="2" fill="#FFFFFF" opacity="0.25"/><rect x="526" y="384" width="26" height="2" fill="#FFFFFF" opacity="0.25"/><rect x="1523" y="359" width="28" height="2" fill="#FFFFFF" opacity="0.25"/><rect x="1308" y="312" width="66" height="2" fill="#FFFFFF" opacity="0.25"/><rect x="725" y="394" width="37" height="2" fill="#FFFFFF" opacity="0.25"/><rect x="776" y="324" width="22" height="2" fill="#FFFFFF" opacity="0.25"/><rect x="1385" y="333" width="59" height="2" fill="#FFFFFF" opacity="0.25"/><rect x="334" y="474" width="65" height="2" fill="#FFFFFF" opacity="0.25"/><rect x="1208" y="434" width="49" height="2" fill="#FFFFFF" opacity="0.25"/><rect x="1168" y="312" width="44" height="2" fill="#FFFFFF" opacity="0.25"/><rect x="1323" y="327" width="66" height="2" fill="#FFFFFF" opacity="0.25"/><rect x="1420" y="367" width="38" height="2" fill="#FFFFFF" opacity="0.25"/><rect x="722" y="362" width="70" height="2" fill="#FFFFFF" opacity="0.25"/><rect x="619" y="293" width="25" height="2" fill="#FFFFFF" opacity="0.25"/><path d="M32 480 L80 250 Q480 192 880 288 L992 480 Z" fill="#E7D7C1"/><rect x="128" y="229" width="45" height="40" fill="#FBFAF6"/><rect x="146" y="245" width="10" height="14" fill="#2E6FA3"/><rect x="178" y="234" width="45" height="40" fill="#FBFAF6"/><rect x="195" y="250" width="10" height="14" fill="#2E6FA3"/><rect x="227" y="238" width="45" height="40" fill="#FBFAF6"/><rect x="245" y="254" width="10" height="14" fill="#2E6FA3"/><rect x="277" y="243" width="45" height="40" fill="#FBFAF6"/><rect x="294" y="259" width="10" height="14" fill="#2E6FA3"/><rect x="326" y="248" width="45" height="40" fill="#FBFAF6"/><rect x="344" y="264" width="10" height="14" fill="#2E6FA3"/><rect x="376" y="253" width="45" height="40" fill="#FBFAF6"/><rect x="394" y="269" width="10" height="14" fill="#2E6FA3"/><rect x="152" y="285" width="45" height="40" fill="#FBFAF6"/><rect x="170" y="301" width="10" height="14" fill="#2E6FA3"/><rect x="202" y="290" width="45" height="40" fill="#FBFAF6"/><rect x="219" y="306" width="10" height="14" fill="#2E6FA3"/><rect x="251" y="294" width="45" height="40" fill="#FBFAF6"/><rect x="269" y="310" width="10" height="14" fill="#2E6FA3"/><rect x="301" y="299" width="45" height="40" fill="#FBFAF6"/><rect x="318" y="315" width="10" height="14" fill="#2E6FA3"/><rect x="350" y="304" width="45" height="40" fill="#FBFAF6"/><rect x="368" y="320" width="10" height="14" fill="#2E6FA3"/><rect x="400" y="309" width="45" height="40" fill="#FBFAF6"/><rect x="418" y="325" width="10" height="14" fill="#2E6FA3"/><rect x="264" y="230" width="48" height="32" fill="#FBFAF6"/><path d="M264 230 A24 24 0 0 1 312 230 Z" fill="#2E6FA3"/><rect x="286" y="194" width="3" height="13" fill="#FBFAF6"/><rect x="616" y="230" width="48" height="32" fill="#FBFAF6"/><path d="M616 230 A24 24 0 0 1 664 230 Z" fill="#2E6FA3"/><rect x="638" y="194" width="3" height="13" fill="#FBFAF6"/><path d="M1357 355.2 L1427 355.2 L1418 366 L1366 366 Z" fill="#F2EEE6"/><path d="M1387 355.2 L1387 311 L1362 350 Z" fill="#FFFFFF"/><path d="M1396 355.2 L1396 320 L1417 350 Z" fill="#FFFFFF" opacity="0.85"/></svg>
