<svg xmlns="http://www.w3.org/2000/svg" viewBox="0 0 1600 480" width="1600" height="480"><defs><linearGradient id="sk" x1="0" y1="0" x2="0" y2="1"><stop offset="0" stop-color="#3E3A68"/><stop offset="1" stop-color="#EE9A76"/></linearGradient></defs><rect width="1600" height="480" fill="url(#sk)"/><circle cx="1084.321284795174" cy="122.11369834841537" r="72" fill="#FFC07A" opacity="0.35"/><circle cx="1084.321284795174" cy="122.11369834841537" r="37" fill="#FFC07A"/><path d="M0 480 L0 239 L267 177 L533 187 L800 176 L1067 223 L1333 227 L1600 236 L1600 480 Z" fill="#87757B" opacity="1.0"/><path d="M0 480 L0 58 Q320 86 960 355 L992 480 Z" fill="#4A585C"/><path d="M1600 480 L1600 48 Q1312 96 1344 355 L1312 480 Z" fill="#3C454D"/><rect x="0" y="355" width="1600" height="125" fill="#515174"/><rect x="310" y="358" width="55" height="2" fill="#FFFFFF" opacity="0.25"/><rect x="585" y="457" width="58" height="2" fill="#FFFFFF" opacity="0.25"/><rect x="559" y="376" width="37" height="2" fill="#FFFFFF" opacity="0.25"/><rect x="48" y="436" width="29" height="2" fill="#FFFFFF" opacity="0.25"/><rect x="238" y="466" width="42" height="2" fill="#FFFFFF" opacity="0.25"/><rect x="1514" y="478" width="53" height="2" fill="#FFFFFF" opacity="0.25"/><rect x="400" y="374" width="32" height="2" fill="#FFFFFF" opacity="0.25"/><rect x="1179" y="419" width="35" height="2" fill="#FFFFFF" opacity="0.25"/><rect x="28" y="399" width="40" height="2" fill="#FFFFFF" opacity="0.25"/><rect x="111" y="386" width="35" height="2" fill="#FFFFFF" opacity="0.25"/><rect x="666" y="417" width="48" height="2" fill="#FFFFFF" opacity="0.25"/><rect x="1359" y="392" width="25" height="2" fill="#FFFFFF" opacity="0.25"/><rect x="485" y="382" width="49" height="2" fill="#FFFFFF" opacity="0.25"/><rect x="762" y="395" width="25" height="2" fill="#FFFFFF" opacity="0.25"/><rect x="1202" y="433" width="51" height="2" fill="#FFFFFF" opacity="0.25"/><rect x="1125" y="462" width="22" height="2" fill="#FFFFFF" opacity="0.25"/><rect x="302" y="414" width="55" height="2" fill="#FFFFFF" opacity="0.25"/><rect x="807" y="418" width="35" height="2" fill="#FFFFFF" opacity="0.25"/><path d="M1312 144 q-8 96 -24 211" stroke="#ADA4B9" stroke-width="8" fill="none" opacity="0.9"/><path d="M1120 393.59999999999997 L1184 393.59999999999997 L1176 403 L1128 403 Z" fill="#AD9FAE"/><path d="M1147 393.59999999999997 L1147 354 L1125 389 Z" fill="#B4A8BB"/><path d="M1155 393.59999999999997 L1155 362 L1174 389 Z" fill="#B4A8BB" opacity="0.85"/></svg>
