<svg xmlns="http://www.w3.org/2000/svg" viewBox="0 0 900 700" width="900" height="700"><defs><linearGradient id="sk" x1="0" y1="0" x2="0" y2="1"><stop offset="0" stop-color="#7FB8DC"/><stop offset="1" stop-color="#E8F3F6"/></linearGradient></defs><rect width="900" height="700" fill="url(#sk)"/><circle cx="486.0590492276053" cy="199.74090391407682" r="105" fill="#FFF6D8" opacity="0.35"/><circle cx="486.0590492276053" cy="199.74090391407682" r="54" fill="#FFF6D8"/><g opacity="0.85" fill="#FFFFFF"><ellipse cx="113" cy="99" rx="70" ry="19"/><ellipse cx="148" cy="88" rx="42" ry="19"/></g><g opacity="0.85" fill="#FFFFFF"><ellipse cx="782" cy="158" rx="70" ry="19"/><ellipse cx="817" cy="147" rx="42" ry="19"/></g><g opacity="0.85" fill="#FFFFFF"><ellipse cx="182" cy="110" rx="70" ry="19"/><ellipse cx="217" cy="98" rx="42" ry="19"/></g><path d="M0 700 L0 388 Q56 381 112 392 Q169 385 225 400 Q281 393 338 424 Q394 417 450 428 Q506 380 562 387 Q619 380 675 402 Q731 395 788 424 Q844 409 900 416 L900 700 Z" fill="#8DA8BB" opacity="1.0"/><path d="M110 476 L425 140 L565 140 L880 476 Z" fill="#6D88A0"/><path d="M425 140 L565 140 L633 217 L565 203 L518 231 L460 203 L357 217 Z" fill="#F4F6F8"/><rect x="0" y="490" width="900" height="210" fill="#5C93AE"/><rect x="159" y="617" width="26" height="2" fill="#FFFFFF" opacity="0.25"/><rect x="869" y="520" width="46" height="2" fill="#FFFFFF" opacity="0.25"/><rect x="749" y="675" width="25" height="2" fill="#FFFFFF" opacity="0.25"/><rect x="790" y="667" width="36" height="2" fill="#FFFFFF" opacity="0.25"/><rect x="681" y="538" width="28" height="2" fill="#FFFFFF" opacity="0.25"/><rect x="146" y="555" width="61" height="2" fill="#FFFFFF" opacity="0.25"/><rect x="416" y="698" width="65" height="2" fill="#FFFFFF" opacity="0.25"/><rect x="189" y="581" width="23" height="2" fill="#FFFFFF" opacity="0.25"/><rect x="525" y="618" width="49" height="2" fill="#FFFFFF" opacity="0.25"/><rect x="80" y="618" width="26" height="2" fill="#FFFFFF" opacity="0.25"/><path d="M0 700 L0 525 Q75 520 150 529 Q225 523 300 537 Q375 531 450 550 Q525 525 600 530 Q675 524 750 529 Q825 524 900 547 L900 700 Z" fill="#4C7A5A" opacity="1.0"/><path d="M71 546 L235 546 L210 532 L96 532 Z" fill="#8E3B2E"/><rect x="108" y="546" width="90" height="16" fill="#5A2A22"/><path d="M85 516 L221 516 L200 502 L106 502 Z" fill="#8E3B2E"/><rect x="116" y="516" width="74" height="16" fill="#5A2A22"/><path d="M99 485 L207 485 L191 471 L115 471 Z" fill="#8E3B2E"/><rect x="123" y="485" width="59" height="16" fill="#5A2A22"/><path d="M113 455 L193 455 L181 441 L125 441 Z" fill="#8E3B2E"/><rect x="131" y="455" width="44" height="16" fill="#5A2A22"/><circle cx="257" cy="641" r="14" fill="#F2B8C6" opacity="0.9"/><circle cx="711" cy="583" r="7" fill="#F2B8C6" opacity="0.9"/><circle cx="134" cy="622" r="16" fill="#F2B8C6" opacity="0.9"/><circle cx="651" cy="588" r="16" fill="#F2B8C6" opacity="0.9"/><circle cx="171" cy="576" r="13" fill="#F2B8C6" opacity="0.9"/><circle cx="819" cy="688" r="12" fill="#F2B8C6" opacity="0.9"/><circle cx="719" cy="598" r="9" fill="#F2B8C6" opacity="0.9"/><circle cx="863" cy="659" r="9" fill="#F2B8C6" opacity="0.9"/><circle cx="304" cy="671" r="8" fill="#F2B8C6" opacity="0.9"/><circle cx="168" cy="675" r="10" fill="#F2B8C6" opacity="0.9"/><circle cx="377" cy="628" r="13" fill="#F2B8C6" opacity="0.9"/><circle cx="279" cy="605" r="16" fill="#F2B8C6" opacity="0.9"/><circle cx="683" cy="693" r="7" fill="#F2B8C6" opacity="0.9"/><circle cx="142" cy="681" r="11" fill="#F2B8C6" opacity="0.9"/><circle cx="713" cy="612" r="12" fill="#F2B8C6" opacity="0.9"/><circle cx="603" cy="628" r="13" fill="#F2B8C6" opacity="0.9"/><circle cx="32" cy="682" r="14" fill="#F2B8C6" opacity="0.9"/><circle cx="231" cy="634" r="14" fill="#F2B8C6" opacity="0.9"/><circle cx="840" cy="577" r="18" fill="#F2B8C6" opacity="0.9"/><circle cx="530" cy="579" r="11" fill="#F2B8C6" opacity="0.9"/><circle cx="652" cy="588" r="14" fill="#F2B8C6" opacity="0.9"/><circle cx="505" cy="646" r="7" fill="#F2B8C6" opacity="0.9"/><circle cx="17" cy="696" r="9" fill="#F2B8C6" opacity="0.9"/><circle cx="167" cy="646" r="7" fill="#F2B8C6" opacity="0.9"/><circle cx="659" cy="670" r="11" fill="#F2B8C6" opacity="0.9"/><circle cx="542" cy="635" r="15" fill="#F2B8C6" opacity="0.9"/><path d="M0 700 L0 654 Q90 646 180 649 Q270 646 360 654 Q450 652 540 661 Q630 648 720 650 Q810 648 900 651 L900 700 Z" fill="#2F5A3E" opacity="1.0"/></svg>
